<svg width="50" height="50" viewBox="0 0 50 50" fill="none" xmlns="http://www.w3.org/2000/svg">
<path d="M26.275 19.975C26.275 15.85 22.9 12.475 18.775 12.475C14.65 12.475 11.275 15.85 11.275 19.975C11.275 24.1 14.65 27.475 18.775 27.475C22.9 27.475 26.275 24.1 26.275 19.975ZM18.775 22.475C17.4 22.475 16.275 21.35 16.275 19.975C16.275 18.6 17.4 17.475 18.775 17.475C20.15 17.475 21.275 18.6 21.275 19.975C21.275 21.35 20.15 22.475 18.775 22.475ZM35.025 27.475C37.8 27.475 40.025 25.25 40.025 22.475C40.025 19.7 37.8 17.475 35.025 17.475C32.25 17.475 30 19.7 30.025 22.475C30.025 25.25 32.25 27.475 35.025 27.475ZM25 0C11.2 0 0 11.2 0 25C0 38.8 11.2 50 25 50C38.8 50 50 38.8 50 25C50 11.2 38.8 0 25 0ZM9.625 37.775C11.325 36.425 15.3 35 18.775 35C18.95 35 19.15 35.025 19.35 35.025C19.95 33.425 21.025 31.8 22.6 30.375C21.2 30.125 19.875 29.975 18.775 29.975C15.525 29.975 10.3 31.1 6.95 33.55C5.7 30.95 5 28.05 5 24.975C5 13.95 13.975 4.975 25 4.975C36.025 4.975 45 13.95 45 24.975C45 27.975 44.325 30.825 43.125 33.4C40.625 31.925 37.225 31.225 35.025 31.225C31.225 31.225 23.775 33.25 23.775 37.975V44.925C18.1 44.6 13.05 41.9 9.625 37.775Z" fill="url(#paint0_linear_241_132)"/>
<defs>
<linearGradient id="paint0_linear_241_132" x1="25" y1="0" x2="25" y2="50" gradientUnits="userSpaceOnUse">
<stop stop-color="#7476FD"/>
<stop offset="1" stop-color="#48E5DA"/>
</linearGradient>
</defs>
</svg>
