<svg width="42" height="50" viewBox="0 0 42 50" fill="none" xmlns="http://www.w3.org/2000/svg">
<path d="M20.9872 50C23.8077 50 26.1154 47.6923 26.1154 44.8718H15.859C15.859 47.6923 18.1667 50 20.9872 50ZM36.3718 34.6154V21.7949C36.3718 13.9231 32.1923 7.33333 24.8333 5.58974V3.84615C24.8333 1.71795 23.1154 0 20.9872 0C18.859 0 17.141 1.71795 17.141 3.84615V5.58974C9.8077 7.33333 5.60257 13.8974 5.60257 21.7949V34.6154L0.474365 39.7436V42.3077H41.5V39.7436L36.3718 34.6154ZM31.2436 37.1795H10.7308V21.7949C10.7308 15.4359 14.6026 10.2564 20.9872 10.2564C27.3718 10.2564 31.2436 15.4359 31.2436 21.7949V37.1795Z" fill="url(#paint0_linear_209_14)"/>
<defs>
<linearGradient id="paint0_linear_209_14" x1="20.9872" y1="0" x2="20.9872" y2="50" gradientUnits="userSpaceOnUse">
<stop stop-color="#7476FD"/>
<stop offset="1" stop-color="#48E5DA"/>
</linearGradient>
</defs>
</svg>
