<svg width="50" height="50" viewBox="0 0 50 50" fill="none" xmlns="http://www.w3.org/2000/svg">
<path d="M18.7353 0L17.5098 6.30859C15.4493 7.08563 13.5573 8.17483 11.8994 9.53613L5.83984 7.44629L0 17.5537L4.85352 21.7725C4.66693 22.918 4.57031 23.9796 4.57031 25C4.57031 26.0219 4.66983 27.0816 4.85352 28.2275V28.2324L0 32.4512L5.83984 42.5537L11.8945 40.4688C13.5525 41.8308 15.4489 42.9139 17.5098 43.6914L18.7353 50H30.4053L31.6309 43.6914C33.6926 42.9139 35.5826 41.8264 37.2412 40.4639L43.3008 42.5537L49.1357 32.4512L44.2871 28.2275C44.4737 27.082 44.5703 26.0204 44.5703 25C44.5703 23.9811 44.4731 22.9209 44.2871 21.7773V21.7725L49.1406 17.5488L43.3008 7.44629L37.2461 9.53125C35.5881 8.1692 33.6917 7.08608 31.6309 6.30859L30.4053 0H18.7353ZM22.8564 5H26.2842L27.2559 10L29.8633 10.9863C31.4349 11.5787 32.847 12.3919 34.0723 13.3984L36.2305 15.166L41.0352 13.5156L42.749 16.4795L38.9111 19.8193L39.3506 22.5684V22.5732C39.5035 23.5106 39.5703 24.2969 39.5703 25C39.5703 25.7031 39.5035 26.4893 39.3506 27.4268L38.9062 30.1758L42.7441 33.5156L41.0303 36.4844L36.2305 34.8291L34.0674 36.6016C32.8421 37.6081 31.4349 38.4213 29.8633 39.0137H29.8584L27.251 40L26.2793 45H22.8564L21.8848 40L19.2773 39.0137C17.7057 38.4213 16.2936 37.6081 15.0684 36.6016L12.9102 34.834L8.10547 36.4844L6.3916 33.5205L10.2344 30.1758L9.79004 27.4365V27.4316C9.63936 26.4902 9.57031 25.7017 9.57031 25C9.57031 24.2969 9.63717 23.5107 9.79004 22.5732L10.2344 19.8242L6.3916 16.4844L8.10547 13.5156L12.9102 15.1709L15.0684 13.3984C16.2936 12.3919 17.7057 11.5787 19.2773 10.9863L21.8848 10L22.8564 5ZM24.5703 15C19.079 15 14.5703 19.5087 14.5703 25C14.5703 30.4913 19.079 35 24.5703 35C30.0616 35 34.5703 30.4913 34.5703 25C34.5703 19.5087 30.0616 15 24.5703 15ZM24.5703 20C27.349 20 29.5703 22.2213 29.5703 25C29.5703 27.7787 27.349 30 24.5703 30C21.7916 30 19.5703 27.7787 19.5703 25C19.5703 22.2213 21.7916 20 24.5703 20Z" fill="url(#paint0_linear_241_134)"/>
<defs>
<linearGradient id="paint0_linear_241_134" x1="24.5703" y1="0" x2="24.5703" y2="50" gradientUnits="userSpaceOnUse">
<stop stop-color="#7476FD"/>
<stop offset="1" stop-color="#48E5DA"/>
</linearGradient>
</defs>
</svg>
