<svg width="101" height="100" viewBox="0 0 101 100" fill="none" xmlns="http://www.w3.org/2000/svg">
<path d="M53.05 39.95C53.05 31.7 46.3 24.95 38.05 24.95C29.8 24.95 23.05 31.7 23.05 39.95C23.05 48.2 29.8 54.95 38.05 54.95C46.3 54.95 53.05 48.2 53.05 39.95ZM38.05 44.95C35.3 44.95 33.05 42.7 33.05 39.95C33.05 37.2 35.3 34.95 38.05 34.95C40.8 34.95 43.05 37.2 43.05 39.95C43.05 42.7 40.8 44.95 38.05 44.95ZM70.55 54.95C76.1 54.95 80.55 50.5 80.55 44.95C80.55 39.4 76.1 34.95 70.55 34.95C65 34.95 60.5 39.4 60.55 44.95C60.55 50.5 65 54.95 70.55 54.95ZM50.5 0C22.9 0 0.5 22.4 0.5 50C0.5 77.6 22.9 100 50.5 100C78.1 100 100.5 77.6 100.5 50C100.5 22.4 78.1 0 50.5 0ZM19.75 75.55C23.15 72.85 31.1 70 38.05 70C38.4 70 38.8 70.05 39.2 70.05C40.4 66.85 42.55 63.6 45.7 60.75C42.9 60.25 40.25 59.95 38.05 59.95C31.55 59.95 21.1 62.2 14.4 67.1C11.9 61.9 10.5 56.1 10.5 49.95C10.5 27.9 28.45 9.95 50.5 9.95C72.55 9.95 90.5 27.9 90.5 49.95C90.5 55.95 89.15 61.65 86.75 66.8C81.75 63.85 74.95 62.45 70.55 62.45C62.95 62.45 48.05 66.5 48.05 75.95V89.85C36.7 89.2 26.6 83.8 19.75 75.55Z" fill="url(#paint0_linear_209_15)"/>
<defs>
<linearGradient id="paint0_linear_209_15" x1="50.5" y1="0" x2="50.5" y2="100" gradientUnits="userSpaceOnUse">
<stop stop-color="#7476FD"/>
<stop offset="1" stop-color="#48E5DA"/>
</linearGradient>
</defs>
</svg>
